REM DIRINDEX 1\2,1\4,1\5,1\6,1\7,1\3\8,1\3\9,1\3\10
REM DIRNAME folder01,folder02,folder03,folder04,folder05,folder06,folder07,folder08,folder09,folder10
TITLE ""
FILE "DB4500_5th_2A_32.mp3" MP3
  TRACK 01 AUDIO
    TITLE "0:"
    INDEX 01 00:00:00
  TRACK 02 AUDIO
    TITLE "8:cjc113_1201"
    INDEX 01 00:00:05
  TRACK 03 AUDIO
    TITLE "0:"
    INDEX 01 00:01:32
  TRACK 04 AUDIO
    TITLE "9:cjc113_1202"
    INDEX 01 00:01:48
  TRACK 05 AUDIO
    TITLE "0:"
    INDEX 01 00:02:69
  TRACK 06 AUDIO
    TITLE "10:cjc113_1203"
    INDEX 01 00:03:15
  TRACK 07 AUDIO
    TITLE "0:"
    INDEX 01 00:07:13
  TRACK 08 AUDIO
    TITLE "8:cjc113_1204"
    INDEX 01 00:07:58
  TRACK 09 AUDIO
    TITLE "0:"
    INDEX 01 00:09:00
  TRACK 10 AUDIO
    TITLE "9:cjc113_1205"
    INDEX 01 00:09:18
  TRACK 11 AUDIO
    TITLE "0:"
    INDEX 01 00:10:51
  TRACK 12 AUDIO
    TITLE "10:cjc113_1206"
    INDEX 01 00:10:68
  TRACK 13 AUDIO
    TITLE "0:"
    INDEX 01 00:16:53
  TRACK 14 AUDIO
    TITLE "8:cjc113_1207"
    INDEX 01 00:17:18
  TRACK 15 AUDIO
    TITLE "0:"
    INDEX 01 00:18:29
  TRACK 16 AUDIO
    TITLE "9:cjc113_1208"
    INDEX 01 00:18:46
  TRACK 17 AUDIO
    TITLE "0:"
    INDEX 01 00:19:71
  TRACK 18 AUDIO
    TITLE "10:cjc113_1209"
    INDEX 01 00:20:16
  TRACK 19 AUDIO
    TITLE "0:"
    INDEX 01 00:25:01
  TRACK 20 AUDIO
    TITLE "8:cjc113_1210"
    INDEX 01 00:25:45
  TRACK 21 AUDIO
    TITLE "0:"
    INDEX 01 00:26:50
  TRACK 22 AUDIO
    TITLE "9:cjc113_1211"
    INDEX 01 00:26:66
  TRACK 23 AUDIO
    TITLE "0:"
    INDEX 01 00:28:08
  TRACK 24 AUDIO
    TITLE "10:cjc113_1212"
    INDEX 01 00:28:27
  TRACK 25 AUDIO
    TITLE "0:"
    INDEX 01 00:32:39
  TRACK 26 AUDIO
    TITLE "8:cjc113_1213"
    INDEX 01 00:33:07
  TRACK 27 AUDIO
    TITLE "0:"
    INDEX 01 00:34:55
  TRACK 28 AUDIO
    TITLE "9:cjc113_1214"
    INDEX 01 00:35:00
  TRACK 29 AUDIO
    TITLE "0:"
    INDEX 01 00:36:36
  TRACK 30 AUDIO
    TITLE "10:cjc113_1215"
    INDEX 01 00:36:58
  TRACK 31 AUDIO
    TITLE "0:"
    INDEX 01 00:42:06
  TRACK 32 AUDIO
    TITLE "8:cjc113_1216"
    INDEX 01 00:42:51
  TRACK 33 AUDIO
    TITLE "0:"
    INDEX 01 00:43:52
  TRACK 34 AUDIO
    TITLE "9:cjc113_1217"
    INDEX 01 00:43:72
  TRACK 35 AUDIO
    TITLE "0:"
    INDEX 01 00:45:10
  TRACK 36 AUDIO
    TITLE "10:cjc113_1218"
    INDEX 01 00:45:30
  TRACK 37 AUDIO
    TITLE "0:"
    INDEX 01 00:49:69
  TRACK 38 AUDIO
    TITLE "8:cjc113_1219"
    INDEX 01 00:50:37
  TRACK 39 AUDIO
    TITLE "0:"
    INDEX 01 00:51:56
  TRACK 40 AUDIO
    TITLE "9:cjc113_1220"
    INDEX 01 00:51:73
  TRACK 41 AUDIO
    TITLE "0:"
    INDEX 01 00:53:15
  TRACK 42 AUDIO
    TITLE "10:cjc113_1221"
    INDEX 01 00:53:31
  TRACK 43 AUDIO
    TITLE "0:"
    INDEX 01 00:56:45
  TRACK 44 AUDIO
    TITLE "8:cjc113_1222"
    INDEX 01 00:57:13
  TRACK 45 AUDIO
    TITLE "0:"
    INDEX 01 00:58:30
  TRACK 46 AUDIO
    TITLE "9:cjc113_1223"
    INDEX 01 00:58:50
  TRACK 47 AUDIO
    TITLE "0:"
    INDEX 01 01:00:27
  TRACK 48 AUDIO
    TITLE "10:cjc113_1224"
    INDEX 01 01:00:45
  TRACK 49 AUDIO
    TITLE "0:"
    INDEX 01 01:05:42
  TRACK 50 AUDIO
    TITLE "8:cjc113_1225"
    INDEX 01 01:06:12
  TRACK 51 AUDIO
    TITLE "0:"
    INDEX 01 01:07:15
  TRACK 52 AUDIO
    TITLE "9:cjc113_1226"
    INDEX 01 01:07:33
  TRACK 53 AUDIO
    TITLE "0:"
    INDEX 01 01:08:25
  TRACK 54 AUDIO
    TITLE "10:cjc113_1227"
    INDEX 01 01:08:46
  TRACK 55 AUDIO
    TITLE "0:"
    INDEX 01 01:13:47
  TRACK 56 AUDIO
    TITLE "8:cjc113_1228"
    INDEX 01 01:14:14
  TRACK 57 AUDIO
    TITLE "0:"
    INDEX 01 01:15:21
  TRACK 58 AUDIO
    TITLE "9:cjc113_1229"
    INDEX 01 01:15:40
  TRACK 59 AUDIO
    TITLE "0:"
    INDEX 01 01:16:69
  TRACK 60 AUDIO
    TITLE "10:cjc113_1230"
    INDEX 01 01:17:12
  TRACK 61 AUDIO
    TITLE "0:"
    INDEX 01 01:20:20
